<svg width="159" height="34" viewBox="0 0 159 34" fill="none" xmlns="http://www.w3.org/2000/svg">
<path d="M43.86 12.1H52.74C57.76 12.1 60.6 14.6 60.6 19.08V19.1C60.6 23.56 57.76 26.06 52.74 26.06H43.86C38.84 26.06 36 23.56 36 19.1V19.08C36 14.6 38.84 12.1 43.86 12.1ZM43.86 23.16H52.74C55.94 23.16 57.42 21.7 57.42 19.1V19.08C57.42 16.46 55.94 15 52.74 15H43.86C40.68 15 39.2 16.46 39.2 19.08V19.1C39.2 21.7 40.68 23.16 43.86 23.16ZM69.462 22.76L68.262 23.36H83.422V26H62.722V23.36L76.622 15.4L77.822 14.8H62.742V12.16H83.342V14.8L69.462 22.76ZM104.871 19.26V12.16H108.191V19.26C108.191 23.82 105.471 26.06 100.571 26.06H93.5908C88.6908 26.06 85.9708 23.82 85.9708 19.26V12.16H89.2908V19.26C89.2908 21.92 90.8908 23.14 93.5908 23.14H100.571C103.251 23.14 104.871 21.92 104.871 19.26ZM129.349 21.34L132.629 26H129.009L126.229 21.82H126.069H114.609V26H111.429V12.16H126.069C130.709 12.16 132.289 14.3 132.289 17.04V17.06C132.289 18.96 131.489 20.58 129.349 21.34ZM126.069 15H114.609V19.1H126.069C128.229 19.1 129.089 18.4 129.089 17.06V17.04C129.089 15.7 128.229 15 126.069 15ZM147.676 12.16L158.096 26H154.496L152.456 23.22H139.736L137.696 26H134.096L144.516 12.16H147.676ZM150.536 20.64L146.096 14.78L141.656 20.64H150.536Z" fill="white"/>
<g clip-path="url(#clip0_3_5)">
<path d="M15.7313 0.0169702C15.7279 0.023763 15.4885 0.89664 15.1989 1.95717C14.9085 3.01685 14.6394 3.99671 14.5995 4.13257C13.9533 6.37165 12.9964 8.5496 11.7872 10.5374C9.66194 14.0306 6.74867 16.9515 3.24018 19.1082C2.64241 19.4759 2.44117 19.5888 0.859292 20.4379L0 20.9006L0.0356623 20.9185C0.0560408 20.9287 0.530689 21.152 1.0911 21.4144C2.14568 21.9077 2.58891 22.1225 2.96761 22.3203C5.76031 23.7825 8.05968 25.6378 9.95488 27.955C10.5153 28.6411 10.9738 29.2728 11.7855 30.4785C12.3782 31.359 12.6117 31.6876 12.8834 32.0281C13.3411 32.6004 13.7699 32.9876 14.2267 33.2432C14.8814 33.6083 15.6371 33.7085 16.358 33.5251C17.0636 33.3459 17.6681 32.9239 18.3423 32.1411C18.5138 31.9424 18.6854 31.7267 18.9044 31.4338C19.0844 31.1935 19.1659 31.0814 19.7714 30.2365C21.0076 28.512 21.8661 27.4735 23.0022 26.3281C24.4287 24.888 25.98 23.6415 27.7147 22.5394C28.2445 22.2023 28.5222 22.0393 29.6702 21.388C30.1593 21.1112 30.5592 20.882 30.5592 20.8794C30.5592 20.8769 30.2162 20.6612 29.7976 20.3997C28.7693 19.7578 28.7048 19.717 28.3728 19.4971C26.0734 17.9763 24.0364 16.1542 22.2771 14.0458C19.8554 11.1436 18.0154 7.70814 16.9022 4.012C16.881 3.94152 16.6135 3.02109 16.307 1.96566C16.0005 0.910226 15.7466 0.0373486 15.7432 0.0254612C15.7381 0.0101773 15.7347 0.00763003 15.7313 0.0169702ZM15.8222 7.53832C15.84 7.58332 15.9173 7.76588 15.9928 7.94334C16.9472 10.1739 18.1699 12.2967 19.6007 14.2055C19.7179 14.3617 19.8248 14.5044 19.8376 14.5213C19.8597 14.5511 19.8503 14.546 19.7314 14.4695C18.3016 13.5491 16.5694 13.1475 14.8686 13.3402C13.8174 13.4591 12.768 13.8115 11.8934 14.3405C11.8382 14.3736 11.7915 14.4008 11.7889 14.4008C11.7864 14.4008 11.8076 14.371 11.8365 14.3345C13.2859 12.4852 14.5664 10.314 15.5173 8.09194C15.6167 7.86098 15.7483 7.54342 15.7687 7.48653C15.7746 7.46954 15.7814 7.45511 15.7848 7.45511C15.7874 7.45511 15.8035 7.49247 15.8222 7.53832ZM16.2009 15.5165C16.6246 15.5589 16.9931 15.6379 17.3811 15.767C19.1158 16.3478 20.4379 17.8082 20.8404 19.5888C20.9295 19.9845 20.9677 20.336 20.9669 20.7648C20.9669 21.0951 20.9474 21.3354 20.8964 21.6394C20.6035 23.3894 19.4249 24.8863 17.7845 25.5945C17.3701 25.7728 16.9218 25.8993 16.4683 25.9647C16.054 26.025 15.5394 26.0335 15.114 25.9859C13.7809 25.8399 12.5362 25.1682 11.6658 24.1272C10.6393 22.8977 10.2334 21.2785 10.5543 19.6907C10.8235 18.3593 11.6276 17.162 12.7705 16.3911C13.5169 15.8875 14.388 15.5819 15.2711 15.5131C15.3365 15.508 15.407 15.5029 15.4282 15.5012C15.5241 15.4936 16.0778 15.5046 16.2009 15.5165ZM8.99709 17.4847C8.98605 17.5093 8.95718 17.5713 8.93256 17.6231C8.82387 17.8532 8.7067 18.1521 8.61075 18.4433C8.21422 19.6533 8.13695 20.9737 8.38998 22.2337C8.47829 22.6702 8.6116 23.1185 8.77887 23.5363C8.7984 23.5847 8.81368 23.6254 8.81199 23.6263C8.81029 23.628 8.74491 23.5736 8.66509 23.5057C7.53239 22.5394 6.18741 21.5986 4.85432 20.8412C4.78979 20.8047 4.74054 20.7724 4.74394 20.7682C4.74733 20.7648 4.82715 20.7121 4.92055 20.6527C5.98702 19.9649 7.04415 19.1761 8.01128 18.3457C8.31441 18.085 8.72453 17.7165 8.94614 17.5051C8.98266 17.4703 9.01407 17.4414 9.01492 17.4406C9.01662 17.4406 9.00813 17.4609 8.99709 17.4847ZM23.0362 18.0646C23.9999 18.9774 25.0808 19.869 26.2059 20.679C26.3273 20.7665 26.3553 20.7903 26.346 20.7988C26.34 20.8038 26.2627 20.8556 26.1736 20.9134C25.0341 21.6546 23.8216 22.581 22.7687 23.515C22.6804 23.594 22.6006 23.6645 22.5912 23.6721C22.5759 23.6857 22.5759 23.6849 22.5904 23.6517C22.7228 23.3401 22.8731 22.8858 22.9589 22.5352C23.1695 21.6699 23.2247 20.7631 23.1211 19.8775C23.0277 19.0887 22.795 18.2744 22.4622 17.5781L22.4002 17.4482L22.6651 17.7063C22.8111 17.8481 22.9776 18.0095 23.0362 18.0646ZM19.1201 27.4192C18.9163 27.6697 18.3933 28.3778 17.7938 29.2168C17.393 29.7755 17.2062 30.0327 17.0508 30.2365C16.4981 30.9625 16.1228 31.3123 15.8154 31.3913C15.722 31.4151 15.5674 31.4151 15.474 31.3913C15.3127 31.3497 15.1446 31.2359 14.9315 31.0228C14.6487 30.74 14.3838 30.3902 13.8217 29.5589C13.2732 28.7472 13.184 28.6156 13.0482 28.4194C12.8648 28.1554 12.6117 27.8005 12.4538 27.5873C12.3867 27.4965 12.3324 27.4209 12.3332 27.4192C12.3341 27.4184 12.4011 27.4498 12.4827 27.4888C13.7996 28.1265 15.328 28.3583 16.791 28.1426C17.5764 28.0272 18.361 27.7809 19.0326 27.4404C19.0938 27.4099 19.1447 27.3844 19.1464 27.3844C19.1481 27.3835 19.1362 27.3997 19.1201 27.4192Z" fill="white"/>
</g>
<defs>
<clipPath id="clip0_3_5">
<rect width="35" height="33.616" fill="white"/>
</clipPath>
</defs>
</svg>
